<?xml version="1.0" ?><svg height="64px" id="Слой_1" style="enable-background:new 0 0 64 64;" version="1.1" viewBox="0 0 64 64" width="64px" xml:space="preserve" xmlns="http://www.w3.org/2000/svg" xmlns:xlink="http://www.w3.org/1999/xlink"><g id="row_5"><g id="candle"><circle cx="32" cy="25" r="22" style="fill:#FFE0B2;"/><path d="M8.5,56.8c-1.4-0.6-2.7-1.5-3.7-2.7c-1.8-2.1-2.5-5-2-7.8c0.9-5,5.1-7.8,9.4-7.9    c2.5,0,4.9,1,6.6,2.8c3.6,3.8,6.6,8.3,9,13.5L25,56.1c-2.2-4.9-5-9.2-8.4-12.7c-1.2-1.2-2.8-1.9-4.5-1.9c-1.6,0-3.2,0.6-4.4,1.6    c-2.8,2.4-3.1,6.4-0.6,9.2c0.7,0.8,1.6,1.4,2.6,1.8c0.6,0.2,0.9,0.9,0.5,1.5c-0.2,0.3-0.4,0.6-0.5,0.9C9.5,56.8,8.9,57,8.5,56.8z" style="fill:#4E342E;"/><path d="M51,57H13v-1c0-1.7,1.3-3,3-3h32c1.7,0,3,1.3,3,3V57z" style="fill:#5D4037;"/><path d="M50,61H14c-1.7,0-3-1.3-3-3v0c0-0.6,0.4-1,1-1h40c0.6,0,1,0.4,1,1v0C53,59.7,51.7,61,50,61z" style="fill:#3E2723;"/><path d="M32.7,31.7c0,1.4-1.1,2.6-2.6,2.6s-2.6-1.1-2.6-2.6s1.1-21,2.6-21S32.7,30.3,32.7,31.7z" style="fill:#FBC02D;"/><path d="M32.1,31.6c0,1.1-0.9,2-2,2s-2-0.9-2-2s0.9-7.2,2-7.2S32.1,30.5,32.1,31.6z" style="fill:#FFFFFF;"/><path d="M28,36.3c0.2-0.9,0.5-1.8,0.9-2.6c0.2-0.5,0.9-0.6,1.2-0.1c0,0,0,0.1,0.1,0.1    c0.3,0.4,0.8,0.5,1.3,0.3c1.2-0.7,2.4-1.2,3.8-1.5c0.1-0.1,0.2-0.4,0.3-0.6c0.3-1,1.8-0.9,2,0.1l0,0c0.6,0.3,0.8,0.6,1,1.1    c0.4-0.5,0.7-1.1,0.7-1.8c0,0,0.6,2-0.6,4c-1.3,2-4.7,2.7-7.3,2.7S28,36.3,28,36.3z" style="fill:#FFAB00;"/><path d="M33.2,37.6c-0.3-2.1-1.2-3.5-1.9-4.6c-0.2-0.3-0.2-0.6-0.1-1c0.1-0.5,0-1.1-0.4-1.5    c-0.6-0.6-1.5-0.6-2.1,0c-0.6,0.6-0.6,1.5,0,2.1c0.3,0.4,0.8,0.5,1.3,0.4c0.4-0.1,0.7,0,1,0.3c0.6,0.7,0.8,1.9,0.2,4L33.2,37.6z" style="fill:#880E4F;"/><path d="M48.4,53.8c-1.3-1.7-3-3.1-4.8-4.1c0-0.1,0-0.2,0-0.3c-0.1-1.1-0.5-2.1-1.2-3    c-0.1-0.2-0.3-0.4-0.4-0.6c0.2-1,0.5-2,0.9-2.9c0.4-1,0.5-2,0.3-3c-0.2-0.8-0.3-1.7-0.3-2.5l0,0c1,0.1,1.6-1.2,1-2    c-1.3-1.6-2.7-3.1-4.3-4.4c0,0,1.1,2.1,0.2,3.5s-1.4,4.5-1.2,8.1c0.2,3.6,1.2,11.2,1.2,11.2H48.4z" style="fill:#E65100;"/><g><path d="M40.1,36.6c-1.8,1.4-5.5,8.1-6.4,4.8c-1-3.3-3.8-2.3-4.4-0.1c-0.5,1.8,0.3,4.7-1.7,4.3     c-1.8-0.3-1.8-4.2-2.4-6.2s-1.5-3.1-2.1-1.4c0.2,2.6,0.2,5.2-0.1,7.8c-1.9,1.5-3.3,3.6-3.9,6.1c-1.3,0.4-2.5,1.1-3.5,2l25.7,0     c-0.9-4.1-1.3-8.3-1.3-12.6C39.9,39.8,40,38.1,40.1,36.6z" style="fill:#EF6C00;"/><path d="M25.1,39.5c0.7,2,0.7,5.9,2.4,6.2c2,0.4,1.2-2.5,1.7-4.3c0.6-2.2,3.5-3.2,4.4,0.1     c0.9,3,4-2.2,5.9-4.1c0.3-0.3,0.5-0.6,0.6-1c0.1-0.3,0.3-0.5,0.5-0.7c0.7-0.6,1.1-1.5,1.1-2.4c0-0.8-0.3-1.5-0.8-2.1l0,0     c0.9-0.5,1-1.8,0.1-2.3c-0.7-0.4-1.5-0.7-2.2-0.9c-0.4-0.2-0.9-0.1-1.2,0.2c0,0,0,0,0,0c-0.4,0.4-0.4,1-0.1,1.5     c0.8,1,1.4,2.3,1.1,3.7c-0.2,0.8-0.6,1.6-1.1,2.2c-0.6-0.8-0.8-1.8-0.8-2.8c0-0.4-0.5-0.6-0.8-0.3c-0.5,0.6-0.9,1.4-1,2.2     c-0.1,0.4-0.3,0.7-0.6,1c-0.5,0.4-0.9,0.8-1.3,1.3c-0.4,0.1-1.3,0.1-1.4,0.1c-0.8-0.9-0.6-3.3-1-3.3c-0.7,0-0.3,1.1-0.5,1.8     c-0.1,0.4-0.6,0.6-0.9,0.4c-0.4-0.1-0.7-0.3-1-0.5c-0.3-0.2-0.5-0.5-0.5-0.9c0-0.5,0.2-1.4-0.3-1.6c-0.8-0.2-1.2,1.1-1.6,1.7     c-0.3,0.1-0.6,0-0.9-0.3c0-1.4-0.1-2.7-0.3-4c-0.1-0.6,0.2-1.2,0.7-1.6c0.2-0.1,0.4-0.3,0.5-0.5c0.2-0.3,0.2-0.8,0-1.2     c-0.2-0.4-0.7-0.5-1.1-0.7c-0.6-0.3-1.4-0.1-1.8,0.4c-0.1,0.2-0.3,0.4-0.4,0.6c-0.2,0.2-0.3,0.5-0.3,0.9     c-0.1,2.9-0.6,5.6-1.4,8.3c-0.2,0.7,0.2,1.5,0.9,1.8c0.4,0.1,0.8,0.1,1.2-0.1C23.6,36.4,24.5,37.5,25.1,39.5z" style="fill:#FB8C00;"/></g></g></g></svg>